<?xml version="1.0" encoding="UTF-8" standalone="no"?>
<svg
   xmlns:dc="http://purl.org/dc/elements/1.1/"
   xmlns:cc="http://creativecommons.org/ns#"
   xmlns:rdf="http://www.w3.org/1999/02/22-rdf-syntax-ns#"
   xmlns:svg="http://www.w3.org/2000/svg"
   xmlns="http://www.w3.org/2000/svg"
   xmlns:sodipodi="http://sodipodi.sourceforge.net/DTD/sodipodi-0.dtd"
   xmlns:inkscape="http://www.inkscape.org/namespaces/inkscape"
   sodipodi:docname="sketch.svg"
   inkscape:version="1.0 (4035a4fb49, 2020-05-01)"
   id="svg8"
   version="1.1"
   viewBox="0 0 1.5 1"
   height="1000"
   width="1500">
  <defs
     id="defs2">
    <rect
       id="rect1549"
       height="23.151043"
       width="32.246094"
       y="154.61589"
       x="131.05144" />
    <marker
       inkscape:isstock="true"
       style="overflow:visible"
       id="Arrow1Lend"
       refX="0"
       refY="0"
       orient="auto"
       inkscape:stockid="Arrow1Lend">
      <path
         transform="matrix(-0.8,0,0,-0.8,-10,0)"
         style="fill:#000000;fill-opacity:1;fill-rule:evenodd;stroke:#000000;stroke-width:1pt;stroke-opacity:1"
         d="M 0,0 5,-5 -12.5,0 5,5 Z"
         id="path1188" />
    </marker>
    <marker
       inkscape:isstock="true"
       style="overflow:visible"
       id="Arrow1Lstart"
       refX="0"
       refY="0"
       orient="auto"
       inkscape:stockid="Arrow1Lstart">
      <path
         transform="matrix(0.8,0,0,0.8,10,0)"
         style="fill:#000000;fill-opacity:1;fill-rule:evenodd;stroke:#000000;stroke-width:1pt;stroke-opacity:1"
         d="M 0,0 5,-5 -12.5,0 5,5 Z"
         id="path1185" />
    </marker>
  </defs>
  <sodipodi:namedview
     inkscape:window-maximized="1"
     inkscape:window-y="-4"
     inkscape:window-x="-4"
     inkscape:window-height="722"
     inkscape:window-width="1366"
     units="px"
     inkscape:snap-page="true"
     inkscape:snap-global="false"
     inkscape:guide-bbox="true"
     showguides="true"
     showgrid="false"
     inkscape:document-rotation="0"
     inkscape:current-layer="layer1"
     inkscape:document-units="mm"
     inkscape:cy="555.51063"
     inkscape:cx="769.83493"
     inkscape:zoom="0.45254834"
     inkscape:pageshadow="2"
     inkscape:pageopacity="0.0"
     borderopacity="1.0"
     bordercolor="#666666"
     pagecolor="#ffffff"
     id="base" />
  <metadata
     id="metadata5">
    <rdf:RDF>
      <cc:Work
         rdf:about="">
        <dc:format>image/svg+xml</dc:format>
        <dc:type
           rdf:resource="http://purl.org/dc/dcmitype/StillImage" />
        <dc:title></dc:title>
      </cc:Work>
    </rdf:RDF>
  </metadata>
  <g
     id="layer1"
     inkscape:groupmode="layer"
     inkscape:label="Layer 1">
    <rect
       y="0"
       x="0"
       height="1"
       width="1.5"
       id="rect863"
       style="fill:#eeeeee;fill-opacity:1;stroke:none;stroke-width:0.00133333;stroke-miterlimit:2;stroke-dasharray:none;stroke-opacity:1;stop-color:#000000" />
    <path
       d="m 0.45577633,0.03096303 c 0.0175659,0 0.0597656,0.01328234 0.0430333,0.07241445 0.009193,-0.007399 0.0106257,0.001426 0.005275,0.0112518 -0.003061,0.005635 -0.002204,0.0121001 -0.008247,0.0135954 l -0.003699,9.1509e-4 c 0,0 -0.002462,0.0125723 -0.005824,0.0191257 -0.002103,0.004119 -5.3169e-4,0.0134548 7.449e-5,0.0174934 6.0218e-4,0.004039 0.005594,0.007149 0.006821,0.007908 0.001227,7.5575e-4 0.0219733,0.0177905 0.0373206,0.0207163 0.0153473,0.002932 0.0304303,0.0107219 0.0390189,0.0182512 0.002962,0.002603 0.006263,0.0113206 0.0133379,0.0269973 0.00707,0.0156765 -0.001276,0.031344 5.683e-5,0.0522277 0.001336,0.0208837 0.006681,0.0345151 0.004318,0.0664852 0,0 0.0143292,0.0293507 0.0176427,0.0433589 0.003311,0.0140082 0.001506,0.0367985 0.001506,0.0367985 0.0135285,0.0375255 0.0133609,0.0495443 0.013701,0.0581758 l 0.0188802,0.017621 0.007978,0.0142655 0.0155228,0.0230755 c -0.002035,0.003042 -0.006242,0.001775 -0.009543,2.0173e-4 -0.003311,-0.001575 -0.0134257,-0.0110133 -0.0134257,-0.0110133 0,0 -0.002035,0.0476637 -0.002622,0.0523405 -5.8673e-4,0.004677 -0.003879,0.004946 -0.008017,3.6676e-4 0,0 -7.1437e-4,0.005155 -0.001775,0.008017 -0.001067,0.002862 -0.004706,0.00366 -0.006142,0.001795 -0.001426,-0.001855 -0.002103,-0.003799 -0.002103,-0.003799 -0.002224,0.002193 -0.005186,0.001885 -0.008386,7.3212e-4 -0.001526,-0.003081 -0.002692,-0.008396 -0.00343,-0.0122686 -0.003879,0.006113 -0.008506,0.001705 -0.008885,0 -2.3832e-4,-0.001067 -0.001686,-0.0213344 -0.005055,-0.0386593 -0.002025,-0.0104441 -0.005055,-0.0180248 -0.005344,-0.0209565 -7.4977e-4,-0.007798 0.00343,-0.019038 0.00343,-0.019038 -0.0113621,-0.0269335 -0.0220014,-0.041925 -0.0328554,-0.0608214 -0.00357,-0.004667 -0.004048,-0.008825 -0.004248,-0.0135725 -2.5666e-4,-0.005545 -8.2655e-4,-0.0134 -0.002124,-0.0178224 -0.002164,-0.00734 -0.00367,-0.0102535 -0.004827,-0.0172022 -0.001157,-0.00695 -8.4429e-4,-0.0241245 -8.4429e-4,-0.0241245 l -0.007978,-0.0260081 c 0,0 -0.00359,0.0153535 -0.00336,0.0237048 2.3832e-4,0.008356 0.002214,0.0186719 0.003151,0.027481 9.3274e-4,0.008805 0.001047,0.0276914 0.001047,0.0276914 0,0 0.004548,0.008516 0.007548,0.0272716 0.003001,0.0187597 0.004208,0.0587662 0.003131,0.0855901 -0.001077,0.0268239 -0.004019,0.0518299 -0.009004,0.0730038 -0.004985,0.0211739 -0.0184605,0.0537035 -0.0184605,0.0537035 l -0.002517,0.036083 c 0,0 4.5849e-4,0.0106678 0.003121,0.0245863 0.002363,0.0123708 0.006971,0.0273095 0.00695,0.0396075 -4.975e-5,0.0261338 -0.0306278,0.1212531 -0.0306278,0.1212531 0.003461,0.0142236 0.002273,0.0159706 -2.0162e-4,0.0193002 l 0.002094,0.00713 0.0220014,0.0261827 c 7.6751e-4,0.005264 -0.00383,0.007539 -0.007529,0.003719 l -8.4419e-4,0.004088 c -4.7674e-4,0.001615 -0.002663,0.001676 -0.006501,2.0173e-4 l -0.001266,0.002513 c -0.001406,3.6666e-4 -0.002802,7.9116e-4 -0.005036,-2.0172e-4 l -0.001266,-0.002094 -0.001266,0.002732 c -0.001965,0.001137 -0.003919,0.001247 -0.005873,4.2169e-4 l -0.004198,-0.008187 -0.003151,2.0173e-4 -0.001157,0.00692 c -0.00336,0.001725 -0.006042,0.002892 -0.009125,0.001266 -0.005744,-0.003122 -0.006731,-0.007828 -0.009443,-0.0119575 l 0.00336,-0.0279008 c -0.001615,-0.002962 -0.003221,-0.005933 -0.004536,-0.009194 -2.9337e-4,-0.001655 -9.9177e-4,-0.004687 6.88e-6,-0.00735 0.002702,-0.007289 0.005026,-0.0144799 0.005993,-0.0197509 0.002084,-0.0210044 -6.6122e-4,-0.0439732 -0.001356,-0.0626581 -0.0116854,-0.0240268 -0.003231,-0.0495863 0.002234,-0.0746243 0.001197,-0.005145 0.001207,-0.0114829 -0.001486,-0.018664 l -0.005195,-0.0138138 c -0.0101585,-0.0434666 0.007229,-0.10277392 -0.009792,-0.15486416 m -4.68e-6,-0.52226267 c -0.017564,0 -0.0597656,0.01328333 -0.0430333,0.07241445 -0.009193,-0.007399 -0.0106256,0.001426 -0.005275,0.0112518 0.003061,0.005635 0.002204,0.0121001 0.008247,0.0135954 l 0.003699,9.1509e-4 c 0,0 0.002462,0.0125724 0.005824,0.0191257 0.002104,0.004119 5.3169e-4,0.0134548 -7.458e-5,0.0174934 -6.0218e-4,0.004039 -0.005594,0.007149 -0.006821,0.007908 -0.001226,7.5565e-4 -0.0219733,0.0177905 -0.0373217,0.0207163 -0.0153473,0.002932 -0.0304303,0.0107219 -0.0390187,0.0182512 -0.002962,0.002603 -0.006263,0.0113206 -0.013337,0.0269973 -0.00707,0.0156766 0.001276,0.031344 -5.345e-5,0.0522267 -0.001336,0.0208837 -0.006681,0.0345151 -0.004318,0.0664852 0,0 -0.0143292,0.0293507 -0.0176427,0.0433589 -0.003311,0.0140082 -0.001506,0.0367985 -0.001506,0.0367985 -0.0135285,0.0375255 -0.0133609,0.0495444 -0.013701,0.0581749 l -0.0188802,0.017621 -0.007978,0.0142655 -0.0155227,0.0230756 c 0.002035,0.003042 0.006242,0.001775 0.009543,2.0162e-4 0.003311,-0.001576 0.0134257,-0.0110133 0.0134257,-0.0110133 0,0 0.002035,0.0476637 0.002622,0.0523405 5.8673e-4,0.004677 0.003879,0.004946 0.008017,3.6675e-4 0,0 7.1437e-4,0.005155 0.001775,0.008017 0.001067,0.002862 0.004706,0.00366 0.006142,0.001795 0.001426,-0.001855 0.002103,-0.003799 0.002103,-0.003799 0.002224,0.002193 0.005186,0.001885 0.008386,7.3213e-4 0.001526,-0.003091 0.002692,-0.008396 0.00343,-0.0122686 0.003879,0.006113 0.008506,0.001705 0.008885,0 2.3832e-4,-0.001067 0.001686,-0.0213344 0.005055,-0.0386593 0.002025,-0.0104441 0.005055,-0.0180238 0.005344,-0.0209565 7.4987e-4,-0.007798 -0.00343,-0.019038 -0.00343,-0.019038 0.0113621,-0.0269335 0.0220013,-0.041926 0.0328544,-0.0608214 0.00357,-0.004667 0.004048,-0.008825 0.004248,-0.0135745 2.5667e-4,-0.005545 8.2655e-4,-0.0133979 0.002124,-0.0178224 0.002164,-0.00734 0.00367,-0.0102523 0.004827,-0.0172022 0.001157,-0.00695 8.443e-4,-0.0241245 8.443e-4,-0.0241245 l 0.007978,-0.0260132 c 0,0 0.00359,0.0153534 0.00336,0.0237048 -2.3832e-4,0.008356 -0.002214,0.018672 -0.003151,0.027481 -9.3274e-4,0.008805 -0.001047,0.0276904 -0.001047,0.0276904 0,0 -0.004548,0.008516 -0.007548,0.0272716 -0.002991,0.0187597 -0.004208,0.0587662 -0.003131,0.0855901 0.001077,0.0268239 0.004019,0.0518299 0.009004,0.0730038 0.004985,0.0211739 0.0184603,0.0537035 0.0184603,0.0537035 l 0.002513,0.0360826 c 0,0 -4.585e-4,0.0106678 -0.003121,0.0245862 -0.002363,0.0123708 -0.006971,0.0273095 -0.00695,0.0396066 4.618e-5,0.0261338 0.0306278,0.12125334 0.0306278,0.12125334 -0.00345,0.0142236 -0.002263,0.0159706 2.0163e-4,0.0192992 l -0.002094,0.00713 -0.0220014,0.0261827 c -7.6752e-4,0.005264 0.00383,0.007539 0.007529,0.003719 l 8.443e-4,0.004088 c 4.7673e-4,0.001615 0.002663,0.001676 0.006501,2.0172e-4 l 0.001266,0.002513 c 0.001406,3.6677e-4 0.002802,7.9116e-4 0.005036,-2.0172e-4 l 0.001266,-0.002094 0.001266,0.002732 c 0.001965,0.001137 0.003919,0.001247 0.005873,4.218e-4 l 0.004198,-0.008187 0.003151,2.0173e-4 0.001157,0.00692 c 0.00336,0.001725 0.006042,0.002892 0.009125,0.001266 0.005744,-0.003122 0.006731,-0.007828 0.009443,-0.0119575 l -0.00336,-0.0279009 c 0.001615,-0.002962 0.003221,-0.005933 0.004538,-0.009194 2.9336e-4,-0.001655 9.9187e-4,-0.004687 -6.69e-6,-0.00735 -0.002702,-0.007289 -0.005026,-0.0144799 -0.005993,-0.0197509 -0.002084,-0.0210044 6.6122e-4,-0.0439741 0.001356,-0.0626581 0.0116854,-0.0240268 0.003231,-0.0495863 -0.002234,-0.0746242 -0.001197,-0.005145 -0.001207,-0.0114829 0.001486,-0.018664 l 0.005205,-0.0138107 c 0.0101585,-0.0434666 -0.007229,-0.10277393 0.009792,-0.15486417"
       style="fill:none;fill-opacity:1;stroke:#000000;stroke-width:0.002;stroke-miterlimit:2;stroke-dasharray:none;stroke-opacity:1;stop-color:#000000"
       id="path860" />
    <path
       id="path1089"
       style="fill:none;fill-opacity:1;stroke:#000000;stroke-width:0.002;stroke-miterlimit:2;stroke-dasharray:none;stroke-opacity:1;stop-color:#000000"
       d="m 1.0301322,0.03096303 c 0.017566,0 0.059766,0.01328234 0.043034,0.07241445 0.0092,-0.007399 0.010622,0.001426 0.00527,0.0112518 -0.00306,0.005635 -0.0022,0.0121001 -0.00825,0.0135954 l -0.0037,9.1509e-4 c 0,0 -0.00246,0.0125723 -0.00583,0.0191257 -0.0021,0.004119 -5.318e-4,0.0134548 7.47e-5,0.0174934 6.021e-4,0.004039 0.00559,0.007149 0.00682,0.007908 0.00123,7.5575e-4 0.021973,0.0177905 0.037321,0.0207163 0.015348,0.002932 0.03043,0.0107219 0.039019,0.0182512 0.00296,0.002603 0.00626,0.0113206 0.013338,0.0269973 0.00707,0.0156765 -0.00128,0.031344 5.31e-5,0.0522277 0.00134,0.0208837 0.00668,0.0345151 0.00432,0.0664852 0,0 0.014328,0.0293507 0.017643,0.0433589 0.00331,0.0140082 0.0015,0.0367985 0.0015,0.0367985 0.013528,0.0375255 0.013361,0.0495443 0.013703,0.0581758 l 0.01888,0.017621 0.00797,0.0142655 0.015522,0.0230755 C 1.23479,0.55468177 1.23057,0.55341477 1.22728,0.5518415 1.22397,0.5502665 1.213854,0.5408282 1.213854,0.5408282 c 0,0 -0.00203,0.0476637 -0.00262,0.0523405 -5.868e-4,0.004677 -0.00388,0.004946 -0.00802,3.6676e-4 0,0 -7.144e-4,0.005155 -0.00177,0.008017 -0.00107,0.002862 -0.00471,0.00366 -0.00615,0.001795 -0.00143,-0.001855 -0.0021,-0.003799 -0.0021,-0.003799 -0.00223,0.002193 -0.00519,0.001885 -0.00838,7.3212e-4 -0.00152,-0.003081 -0.00269,-0.008396 -0.00343,-0.0122686 -0.00388,0.006113 -0.00851,0.001705 -0.00889,0 -2.384e-4,-0.001067 -0.00168,-0.0213344 -0.00505,-0.0386593 -0.00203,-0.0104441 -0.00505,-0.0180248 -0.00535,-0.0209565 -7.497e-4,-0.007798 0.00343,-0.019038 0.00343,-0.019038 -0.01136,-0.0269335 -0.022001,-0.041925 -0.032856,-0.0608214 -0.00357,-0.004667 -0.00404,-0.008825 -0.00425,-0.0135725 -2.567e-4,-0.005545 -8.266e-4,-0.0134 -0.00213,-0.0178224 -0.00216,-0.00734 -0.00366,-0.0102535 -0.00483,-0.0172022 -0.00116,-0.00695 -8.441e-4,-0.0241245 -8.441e-4,-0.0241245 l -0.00798,-0.0260132 c 0,0 -0.00359,0.0153535 -0.00336,0.0237048 2.384e-4,0.008356 0.00221,0.0186719 0.00315,0.027481 9.328e-4,0.008805 0.00105,0.0276904 0.00105,0.0276904 0,0 0.00455,0.008516 0.00755,0.0272716 0.00299,0.0187597 0.0042,0.0587662 0.00313,0.0855901 -0.00108,0.0268239 -0.00402,0.0518299 -0.009,0.0730037 -0.00499,0.0211738 -0.01846,0.0537035 -0.01846,0.0537035 l -0.00251,0.0360826 c 0,0 4.585e-4,0.0106678 0.00312,0.0245862 0.00236,0.0123708 0.00697,0.0273095 0.00695,0.0396066 -5.31e-5,0.0261338 -0.030628,0.12125334 -0.030628,0.12125334 0.00345,0.0142236 0.00227,0.0159706 -2.018e-4,0.0193002 l 0.00209,0.00713 0.022001,0.0261827 c 7.675e-4,0.005264 -0.00382,0.007539 -0.00752,0.003719 l -8.443e-4,0.004088 c -4.768e-4,0.001615 -0.00267,0.001676 -0.0065,2.0163e-4 l -0.00127,0.002513 c -0.00141,3.6677e-4 -0.0028,7.9106e-4 -0.00504,-2.0173e-4 l -0.00127,-0.002094 -0.00127,0.002732 c -0.00197,0.001137 -0.00392,0.001247 -0.00588,4.217e-4 l -0.00419,-0.008177 -0.00315,2.0163e-4 -0.00116,0.006921 c -0.00336,0.001725 -0.00605,0.002892 -0.00912,0.001266 -0.00574,-0.003122 -0.00672,-0.007828 -0.00944,-0.0119575 l 0.00336,-0.0279008 c -0.00161,-0.002962 -0.00322,-0.005933 -0.00454,-0.009194 -2.935e-4,-0.001655 -9.919e-4,-0.004687 5e-6,-0.00735 0.0027,-0.007289 0.00503,-0.0144799 0.00599,-0.0197509 0.00209,-0.0210043 -6.612e-4,-0.0439731 -0.00135,-0.0626581 -0.011691,-0.0240258 -0.00323,-0.0495853 0.00224,-0.0746242 0.0012,-0.005145 0.00121,-0.0114829 -0.00149,-0.018664 l -0.0052,-0.0138108 c -0.010142,-0.0434627 0.00725,-0.10277061 -0.00979,-0.15486077 m 7.9e-6,-0.52227295 c -0.017566,0 -0.0597666,0.01328234 -0.0430333,0.07241445 -0.009193,-0.007399 -0.0106257,0.001426 -0.005275,0.0112518 0.003061,0.005635 0.002204,0.0121001 0.008247,0.0135954 l 0.003699,9.1519e-4 c 0,0 0.002462,0.0125724 0.005824,0.0191257 0.002103,0.004119 5.317e-4,0.0134548 -7.438e-5,0.0174934 -6.0219e-4,0.004039 -0.005594,0.007149 -0.006821,0.007908 -0.001227,7.5576e-4 -0.0219733,0.0177906 -0.0373206,0.0207163 -0.0153473,0.002932 -0.0304303,0.0107219 -0.0390187,0.0182512 -0.002962,0.002603 -0.006263,0.0113207 -0.0133379,0.0269973 -0.00707,0.0156765 0.001276,0.031344 -5.325e-5,0.0522267 -0.001336,0.0208837 -0.006681,0.034515 -0.004318,0.0664853 0,0 -0.0143292,0.0293507 -0.0176428,0.0433589 -0.003311,0.0140082 -0.001506,0.0367985 -0.001506,0.0367985 -0.0135285,0.0375255 -0.0133609,0.0495444 -0.013701,0.0581759 l -0.0188802,0.017621 -0.007978,0.0142655 -0.0155228,0.0230755 c 0.002035,0.003042 0.006242,0.001775 0.009543,2.0163e-4 0.003311,-0.001576 0.0134257,-0.0110133 0.0134257,-0.0110133 0,0 0.002035,0.0476637 0.002622,0.0523404 5.8673e-4,0.004677 0.003879,0.004946 0.008017,3.6676e-4 0,0 7.1437e-4,0.005155 0.001775,0.008017 0.001067,0.002862 0.004706,0.00366 0.006142,0.001795 0.001426,-0.001855 0.002103,-0.003799 0.002103,-0.003799 0.002224,0.002193 0.005186,0.001885 0.008386,7.3212e-4 0.001526,-0.003081 0.002692,-0.008396 0.00343,-0.0122686 0.003879,0.006113 0.008506,0.001705 0.008885,0 2.3841e-4,-0.001067 0.001686,-0.0213344 0.005055,-0.0386593 0.002025,-0.0104441 0.005055,-0.0180249 0.005344,-0.0209565 7.4976e-4,-0.007798 -0.00343,-0.019037 -0.00343,-0.019037 0.0113621,-0.0269335 0.0220013,-0.041925 0.0328554,-0.0608214 0.00357,-0.004667 0.004048,-0.008825 0.004248,-0.0135725 2.5677e-4,-0.005545 8.2655e-4,-0.0134 0.002124,-0.0178224 0.002164,-0.00734 0.00367,-0.0102535 0.004827,-0.0172022 0.001157,-0.00695 8.443e-4,-0.0241245 8.443e-4,-0.0241245 l 0.007978,-0.0260132 c 0,0 0.00359,0.0153535 0.00336,0.0237048 -2.3843e-4,0.008356 -0.002214,0.0186719 -0.003151,0.027481 -9.3284e-4,0.008805 -0.001047,0.0276913 -0.001047,0.0276913 0,0 -0.004548,0.008516 -0.007548,0.0272716 -0.003001,0.0187597 -0.004208,0.0587662 -0.003131,0.0855901 0.001077,0.0268239 0.004019,0.0518299 0.009004,0.0730037 0.004985,0.0211738 0.0184603,0.0537035 0.0184603,0.0537035 l 0.002513,0.0360826 c 0,0 -4.5829e-4,0.0106678 -0.003121,0.0245862 -0.002363,0.0123708 -0.006971,0.0273095 -0.00695,0.0396075 5.336e-5,0.0261338 0.0306278,0.12125335 0.0306278,0.12125335 -0.00345,0.0142236 -0.002273,0.0159706 2.0163e-4,0.0193002 l -0.002094,0.00713 -0.0220014,0.0261827 c -7.6753e-4,0.005266 0.00383,0.007539 0.007529,0.003719 l 8.442e-4,0.004088 c 4.7674e-4,0.001615 0.002663,0.001676 0.006501,2.0182e-4 l 0.001266,0.002513 c 0.001416,3.6667e-4 0.002802,7.9116e-4 0.005036,-2.0172e-4 l 0.001266,-0.002094 0.001266,0.002732 c 0.001965,0.001137 0.003919,0.001247 0.005873,4.2171e-4 l 0.004198,-0.008177 0.003151,2.0172e-4 0.001157,0.00692 c 0.00336,0.001725 0.00604,0.002892 0.00912,0.001266 0.00574,-0.003122 0.00673,-0.007828 0.00944,-0.0119575 l -0.00336,-0.0279008 c 0.00161,-0.002962 0.00322,-0.005933 0.00454,-0.009194 2.934e-4,-0.001655 9.918e-4,-0.004687 -5.1e-6,-0.00735 -0.0027,-0.007289 -0.00503,-0.0144799 -0.00599,-0.0197509 -0.00209,-0.0210043 6.612e-4,-0.0439732 0.00135,-0.0626581 0.011691,-0.0240258 0.00323,-0.0495863 -0.00224,-0.0746241 -0.0012,-0.005145 -0.00121,-0.0114829 0.00149,-0.0186641 l 0.0052,-0.0138108 c 0.010155,-0.0434637 -0.00724,-0.10277171 0.00979,-0.15486196" />
    <ellipse
       ry="0.0092303539"
       rx="0.0092302477"
       cy="0.29738459"
       cx="0.39716828"
       id="path1153"
       style="fill:#000000;fill-opacity:1;stroke:none;stroke-width:0.00133333;stroke-miterlimit:2;stroke-dasharray:none;stroke-opacity:1;stop-color:#000000" />
    <ellipse
       ry="0.0092303539"
       rx="0.0092302477"
       style="fill:#000000;fill-opacity:1;stroke:none;stroke-width:0.00133333;stroke-miterlimit:2;stroke-dasharray:none;stroke-opacity:1;stop-color:#000000"
       id="circle1155"
       cx="0.51967889"
       cy="0.29738459" />
    <ellipse
       ry="0.0092303539"
       rx="0.0092302477"
       cy="0.099351622"
       cx="0.43744567"
       id="circle1157"
       style="fill:#000000;fill-opacity:1;stroke:none;stroke-width:0.00133333;stroke-miterlimit:2;stroke-dasharray:none;stroke-opacity:1;stop-color:#000000" />
    <ellipse
       ry="0.0092303539"
       rx="0.0092302477"
       style="fill:#000000;fill-opacity:1;stroke:none;stroke-width:0.00133333;stroke-miterlimit:2;stroke-dasharray:none;stroke-opacity:1;stop-color:#000000"
       id="circle1159"
       cx="0.4760451"
       cy="0.099351622" />
    <ellipse
       ry="0.0092303539"
       rx="0.0092302477"
       cy="0.14130744"
       cx="0.4559063"
       id="circle1161"
       style="fill:#000000;fill-opacity:1;stroke:none;stroke-width:0.00133333;stroke-miterlimit:2;stroke-dasharray:none;stroke-opacity:1;stop-color:#000000" />
    <ellipse
       ry="0.0092303539"
       rx="0.0092302477"
       style="fill:#000000;fill-opacity:1;stroke:none;stroke-width:0.00133333;stroke-miterlimit:2;stroke-dasharray:none;stroke-opacity:1;stop-color:#000000"
       id="circle1163"
       cx="0.4559063"
       cy="0.40982693" />
    <ellipse
       ry="0.0092303539"
       rx="0.0092302477"
       cy="0.50548691"
       cx="0.4559063"
       id="circle1165"
       style="fill:#000000;fill-opacity:1;stroke:none;stroke-width:0.00133333;stroke-miterlimit:2;stroke-dasharray:none;stroke-opacity:1;stop-color:#000000" />
  </g>
</svg>
